@startuml

title __GUMBALLSTATE's Class Diagram__\n


      class gumballstate.GumballMachine {
          ~ count : int
          + GumballMachine()
          + ejectQuarter()
          + getHasQuarterState()
          + getNoQuarterState()
          + getSoldOutState()
          + getSoldState()
          + getState()
          + insertQuarter()
          + toString()
          + turnCrank()
          ~ getCount()
          ~ refill()
          ~ releaseBall()
          ~ setState()
      }

      class gumballstate.GumballMachineTestDrive {
          {static} + main()
      }

      class gumballstate.HasQuarterState {
          + HasQuarterState()
          + dispense()
          + ejectQuarter()
          + insertQuarter()
          + toString()
          + turnCrank()
      }

      class gumballstate.NoQuarterState {
          + NoQuarterState()
          + dispense()
          + ejectQuarter()
          + insertQuarter()
          + toString()
          + turnCrank()
      }

      class gumballstate.SoldOutState {
          + SoldOutState()
          + dispense()
          + ejectQuarter()
          + insertQuarter()
          + toString()
          + turnCrank()
      }

      class gumballstate.SoldState {
          + SoldState()
          + dispense()
          + ejectQuarter()
          + insertQuarter()
          + toString()
          + turnCrank()
      }

      interface gumballstate.State {
          {abstract} + dispense()
          {abstract} + ejectQuarter()
          {abstract} + insertQuarter()
          {abstract} + turnCrank()
      }


  gumballstate.GumballMachine o- gumballstate.State : hasQuarterState
  gumballstate.GumballMachine o- gumballstate.State : noQuarterState
  gumballstate.GumballMachine o- gumballstate.State : soldOutState
  gumballstate.GumballMachine o- gumballstate.State : soldState
  gumballstate.GumballMachine o- gumballstate.State : state
  gumballstate.HasQuarterState .up..|> gumballstate.State
  gumballstate.HasQuarterState o- gumballstate.GumballMachine : gumballMachine
  gumballstate.NoQuarterState .up..|> gumballstate.State
  gumballstate.NoQuarterState o- gumballstate.GumballMachine : gumballMachine
  gumballstate.SoldOutState .up..|> gumballstate.State
  gumballstate.SoldOutState o- gumballstate.GumballMachine : gumballMachine
  gumballstate.SoldState .up..|> gumballstate.State
  gumballstate.SoldState o- gumballstate.GumballMachine : gumballMachine
gumballstate.GumballMachineTestDrive -right-> gumballstate.GumballMachine: uses

right footer


PlantUML diagram generated by SketchIt! (https://bitbucket.org/pmesmeur/sketch.it)
For more information about this tool, please contact philippe.mesmeur@gmail.com
endfooter

@enduml
